<?xml version="1.0" encoding="UTF-8" standalone="no"?>
<!-- Created with Inkscape (http://www.inkscape.org/) -->

<svg
   width="400"
   height="400"
   viewBox="0 0 105.83333 105.83333"
   version="1.1"
   id="svg1"
   xml:space="preserve"
   inkscape:version="1.4.2 (ebf0e940, 2025-05-08)"
   sodipodi:docname="scarab.svg"
   xmlns:inkscape="http://www.inkscape.org/namespaces/inkscape"
   xmlns:sodipodi="http://sodipodi.sourceforge.net/DTD/sodipodi-0.dtd"
   xmlns="http://www.w3.org/2000/svg"
   xmlns:svg="http://www.w3.org/2000/svg"><sodipodi:namedview
     id="namedview1"
     pagecolor="#505050"
     bordercolor="#eeeeee"
     borderopacity="1"
     inkscape:showpageshadow="0"
     inkscape:pageopacity="0"
     inkscape:pagecheckerboard="0"
     inkscape:deskcolor="#505050"
     inkscape:document-units="px"
     inkscape:zoom="1"
     inkscape:cx="244"
     inkscape:cy="257"
     inkscape:window-width="1376"
     inkscape:window-height="847"
     inkscape:window-x="70"
     inkscape:window-y="25"
     inkscape:window-maximized="0"
     inkscape:current-layer="svg1"
     showguides="false" /><defs
     id="defs1" /><path
     id="path3"
     style="display:inline;fill:#1a1a1a;fill-opacity:1;stroke:none;stroke-width:0.264583"
     inkscape:label="scarab"
     d="M 9.2604164 0 A 9.260416 9.260416 0 0 0 2.7124958 2.7124958 A 9.260416 9.260416 0 0 0 2.7124958 15.808337 L 13.335103 26.431461 A 47.625 47.625 0 0 0 5.2916665 52.916665 A 47.625 47.625 0 0 0 13.255521 79.28198 L 2.7124958 89.825522 A 9.260416 9.260416 0 0 0 2.7124958 102.92136 A 9.260416 9.260416 0 0 0 15.808337 102.92136 L 26.312605 92.417612 A 47.625 47.625 0 0 0 52.916665 100.54166 A 47.625 47.625 0 0 0 79.401352 92.49771 L 79.401869 92.49771 L 89.825522 102.92136 A 9.260416 9.260416 0 0 0 102.92136 102.92136 A 9.260416 9.260416 0 0 0 102.92136 89.825522 L 92.49771 79.401869 A 47.625 47.625 0 0 0 92.49771 79.401352 A 47.625 47.625 0 0 0 100.54166 52.916665 A 47.625 47.625 0 0 0 92.417612 26.312605 A 47.625 47.625 0 0 0 92.417612 26.312088 L 102.92136 15.808337 A 9.260416 9.260416 0 0 0 102.92136 2.7124958 A 9.260416 9.260416 0 0 0 96.373443 0 A 9.260416 9.260416 0 0 0 89.825522 2.7124958 L 79.28198 13.255521 A 47.625 47.625 0 0 0 52.916665 5.2916665 A 47.625 47.625 0 0 0 26.431461 13.335103 L 15.808337 2.7124958 A 9.260416 9.260416 0 0 0 9.2604164 0 z M 52.916665 23.812499 A 29.104166 29.104166 0 0 1 82.020831 52.916665 A 29.104166 29.104166 0 0 1 52.916665 82.020831 A 29.104166 29.104166 0 0 1 23.812499 52.916665 A 29.104166 29.104166 0 0 1 52.916665 23.812499 z " /></svg>
