<?xml version="1.0" encoding="UTF-8" standalone="no" ?>
<!DOCTYPE svg PUBLIC "-//W3C//DTD SVG 1.1//EN" "http://www.w3.org/Graphics/SVG/1.1/DTD/svg11.dtd">
<svg xmlns="http://www.w3.org/2000/svg" xmlns:xlink="http://www.w3.org/1999/xlink" version="1.1" width="640.0000124484494" height="640.0000124484546" viewBox="0 -0.344840034661388 640.0000124484494 640.0000124484546" xml:space="preserve">
<desc>Created with Fabric.js 5.3.0</desc>
<defs>
</defs>
<g transform="matrix(1.5630114435 0 0 1.5630114435 320.0000062242 319.6551661896)" id="HyBOimICFm0zLO2Jow7Pk"  >
<path style="stroke: rgb(136,210,159); stroke-width: 0; stroke-dasharray: none; stroke-linecap: butt; stroke-dashoffset: 0; stroke-linejoin: miter; stroke-miterlimit: 4; fill: rgb(232,213,15); fill-rule: nonzero; opacity: 1;"  transform=" translate(0, 0)" d="M 0 -204.73299 C 113.01261 -204.73299 204.73299 -113.01261 204.73299 0 C 204.73299 113.01261 113.01261 204.73299 0 204.73299 C -113.01261 204.73299 -204.73299 113.01261 -204.73299 0 C -204.73299 -113.01261 -113.01261 -204.73299 0 -204.73299 z" stroke-linecap="round" />
</g>
<g transform="matrix(1.5143603461 0 0 1.5143603461 320.0000062242 320.0000062242)" id="v49ibc3G6fxszgJznlIkN"  >
<path style="stroke: rgb(231,223,44); stroke-width: 0; stroke-dasharray: none; stroke-linecap: butt; stroke-dashoffset: 0; stroke-linejoin: miter; stroke-miterlimit: 4; fill: rgb(255,255,255); fill-rule: nonzero; opacity: 1;"  transform=" translate(0, 0)" d="M 0 -132.06896 C 72.90207 -132.06896 132.06896 -72.90206 132.06896 0 C 132.06896 72.90207 72.90206 132.06896 0 132.06896 C -72.90207 132.06896 -132.06896 72.90206 -132.06896 0 C -132.06896 -72.90207 -72.90206 -132.06896 0 -132.06896 z" stroke-linecap="round" />
</g>
<g transform="matrix(0.8333333333 0 0 0.8333333333 320.0000062242 320.0000062242)" id="2YT8_l_eLhxPQx6WNMYNa"  >
<path style="stroke: rgb(49,168,247); stroke-width: 0; stroke-dasharray: none; stroke-linecap: butt; stroke-dashoffset: 0; stroke-linejoin: miter; stroke-miterlimit: 4; fill: rgb(232,213,15); fill-rule: nonzero; opacity: 1;"  transform=" translate(0, 0)" d="M -120 -120 L 120 -120 L 120 120 L -120 120 z" stroke-linecap="round" />
</g>
</svg>